<svg xmlns="http://www.w3.org/2000/svg" xmlns:xlink="http://www.w3.org/1999/xlink" width="500" zoomAndPan="magnify" viewBox="0 0 375 374.999991" height="500" preserveAspectRatio="xMidYMid meet" version="1.2"><defs/><g id="9e88fe5468"><rect x="0" width="375" y="0" height="374.999991" style="fill:#ffffff;fill-opacity:1;stroke:none;"/><rect x="0" width="375" y="0" height="374.999991" style="fill:#ffffff;fill-opacity:1;stroke:none;"/><g style="fill:#ff7528;fill-opacity:1;"><g transform="translate(44.024916, 211.876714)"><path style="stroke:none" d="M 22.15625 0 L 11.90625 0 L 1.265625 -46.40625 L 10.40625 -46.40625 L 17.421875 -13.78125 L 18.21875 -13.78125 L 26.53125 -46.40625 L 34.375 -46.40625 L 42.84375 -13.78125 L 43.640625 -13.78125 L 50.6875 -46.40625 L 59.515625 -46.40625 L 48.90625 0 L 38.625 0 L 30.5 -29.921875 L 29.828125 -29.921875 Z M 22.15625 0 "/></g></g><g style="fill:#ff7528;fill-opacity:1;"><g transform="translate(97.549685, 211.876714)"><path style="stroke:none" d="M 15.203125 -20.375 L 15.203125 -7.6875 L 37.359375 -7.6875 L 37.359375 0 L 6.03125 0 L 6.03125 -46.40625 L 36.84375 -46.40625 L 36.84375 -38.71875 L 15.203125 -38.71875 L 15.203125 -27.859375 L 34.125 -27.859375 L 34.125 -20.375 Z M 15.203125 -20.375 "/></g></g><g style="fill:#272727;fill-opacity:1;"><g transform="translate(123.772878, 211.876714)"><path style="stroke:none" d="M 10.1875 0 L 0.796875 0 L 14.53125 -23.875 L 1.453125 -46.40625 L 11.203125 -46.40625 L 20.828125 -29.765625 L 21.609375 -29.765625 L 31.390625 -46.40625 L 40.65625 -46.40625 L 27.578125 -23.875 L 41.328125 0 L 31.609375 0 L 21.296875 -17.90625 L 20.5 -17.90625 Z M 10.1875 0 "/></g></g><g style="fill:#272727;fill-opacity:1;"><g transform="translate(158.669516, 211.876714)"><path style="stroke:none" d="M 23.96875 -46.40625 C 27.289062 -46.40625 30.128906 -45.796875 32.484375 -44.578125 C 34.835938 -43.359375 36.617188 -41.65625 37.828125 -39.46875 C 39.035156 -37.28125 39.640625 -34.734375 39.640625 -31.828125 C 39.640625 -28.929688 39.035156 -26.394531 37.828125 -24.21875 C 36.617188 -22.039062 34.835938 -20.34375 32.484375 -19.125 C 30.128906 -17.90625 27.289062 -17.296875 23.96875 -17.296875 L 15.203125 -17.296875 L 15.203125 0 L 6.03125 0 L 6.03125 -46.40625 Z M 22.75 -24.5625 C 27.851562 -24.5625 30.40625 -26.984375 30.40625 -31.828125 C 30.40625 -36.703125 27.851562 -39.140625 22.75 -39.140625 L 15.203125 -39.140625 L 15.203125 -24.5625 Z M 22.75 -24.5625 "/></g></g><g style="fill:#272727;fill-opacity:1;"><g transform="translate(193.851765, 211.876714)"><path style="stroke:none" d="M 15.203125 -46.40625 L 15.203125 -7.6875 L 36.0625 -7.6875 L 36.0625 0 L 6.03125 0 L 6.03125 -46.40625 Z M 15.203125 -46.40625 "/></g></g><g style="fill:#272727;fill-opacity:1;"><g transform="translate(224.210375, 211.876714)"><path style="stroke:none" d="M 44.53125 0 L 34.875 0 L 31.390625 -10.703125 L 13.609375 -10.703125 L 10.125 0 L 0.703125 0 L 16.71875 -46.40625 L 28.5 -46.40625 Z M 22.0625 -36.71875 L 16.09375 -18.40625 L 28.84375 -18.40625 L 22.859375 -36.71875 Z M 22.0625 -36.71875 "/></g></g><g style="fill:#272727;fill-opacity:1;"><g transform="translate(262.21699, 211.876714)"><path style="stroke:none" d="M 15.203125 0 L 6.03125 0 L 6.03125 -46.40625 L 15.203125 -46.40625 Z M 15.203125 0 "/></g></g><g style="fill:#272727;fill-opacity:1;"><g transform="translate(276.264086, 211.876714)"><path style="stroke:none" d="M 14.921875 0 L 6.03125 0 L 6.03125 -46.40625 L 16.53125 -46.40625 L 35.171875 -16.5 L 35.984375 -16.625 L 35.984375 -46.40625 L 44.8125 -46.40625 L 44.8125 0 L 35.421875 0 L 15.703125 -31.921875 L 14.921875 -31.796875 Z M 14.921875 0 "/></g></g></g></svg>